<?xml version="1.0" encoding="utf-8" ?><svg xmlns="http://www.w3.org/2000/svg" xmlns:xlink="http://www.w3.org/1999/xlink" width="1024" height="1024" viewBox="0 0 1024 1024"><path fill="#6ECEB2" d="M0 358.725C23.6873 361.305 47.9294 368.689 69.8532 377.944C95.8774 388.94 120.663 402.664 143.794 418.885C171.729 438.324 197.591 460.549 224.633 481.127C246.646 497.879 268.839 511.19 293.565 523.482C292.479 527.498 291.415 531.654 290.264 535.639C272.701 527.29 255.331 518.31 239.558 507.278C174.749 461.945 119.563 404.001 41.5127 380.491C26.8378 376.071 14.9 373.975 0 370.856L0 358.725Z"/><path fill="#6ECEB2" d="M628.932 348.203C638.002 347.569 646.485 349.116 654.649 353.147C666.506 358.912 675.59 369.147 679.907 381.604C701.479 381.42 724.533 382.13 742.717 395.406C752.19 402.322 759.928 413.39 761.686 425.244C766.766 459.5 715.149 490.676 690.212 506.295C672.522 517.376 650.1 524.338 637.513 541.936C629.69 552.873 626.347 564.175 628.45 577.519C632.15 600.995 653.114 622.033 671.372 635.516C683.052 628.729 696.452 625.485 709.942 626.178C727.295 627.114 761.26 640.521 759.243 661.972C758.877 666.214 756.801 670.124 753.492 672.805C748.25 677.032 737.161 675.953 730.431 675.985L704.051 676.109L676.538 676.217C670.645 676.236 664.553 676.513 658.69 675.87C647.902 674.687 613.712 653.649 604.489 646.436C596.679 640.329 589.658 633.652 583.369 625.978C569.614 609.415 560.702 584.281 558.806 562.985C555.839 529.672 529.074 507.469 498.187 499.537C435.63 483.471 365.586 510.261 311.364 540.347C311.938 531.802 313.242 523.321 315.261 514.998C324.981 476.065 350.124 445.925 384.073 425.368C426.082 399.931 479.572 396.065 526.626 408.208C547.661 402.668 562.968 398.755 584.225 395.594C584.538 384.711 588.453 374.24 595.357 365.822C603.749 355.704 615.837 349.36 628.932 348.203Z"/><path fill="#6ECEB2" d="M409.998 636.134C412.697 635.878 422.692 636.694 425.861 636.955C438.807 638.047 451.732 639.374 464.63 640.937C467.68 641.308 477.6 643.218 479.769 642.585C494.669 637.952 505.247 629.798 521.007 626.636C543.308 622.162 579.859 632.936 585.933 657.777C587.807 665.443 581.968 675.884 573.197 675.968C567.461 676.024 561.206 676.02 555.183 675.995L525.718 676.06L417.77 675.978L345.356 676.299C333.758 676.332 318.869 677.052 307.546 675.614C285.596 672.826 263.912 655.31 262.921 632.161C261.836 606.809 278.638 592.044 296.897 578.165C342.281 543.668 399.647 520.653 456.495 515.572C479.481 514.211 504.083 518.55 521.738 533.92C540.961 550.656 542.36 577.995 524.588 596.313C502.63 618.947 464.815 625.697 434.92 631.293C427.311 632.718 416.069 634.541 408.405 634.787L407.908 634.798C408.621 635.233 409.298 635.679 409.998 636.134Z"/><path fill="#4aab90" d="M409.998 636.134C409.036 636.062 404.302 636.078 407.908 634.798C408.621 635.233 409.298 635.679 409.998 636.134Z"/></svg>